<svg width="78" height="78" viewBox="0 0 78 78" fill="none" xmlns="http://www.w3.org/2000/svg">
<g clip-path="url(#clip0_102_170)">
<path d="M39.68 7.76675C32.0735 13.4215 14.0872 29.7469 0.601428 29.7469C-0.286345 29.7469 0.0711375 30.3906 0.0711375 30.3906L11.854 35.3157L4.68646 42.4115V54.1513L42.8918 70.1185L77.8854 35.4727V23.7339L39.68 7.76675ZM10.4179 31.0971C14.4643 29.585 18.5394 27.3469 22.4436 24.8316C23.4203 24.2026 24.3813 23.5513 25.3329 22.8951C25.5421 22.7504 25.7499 22.6082 25.9571 22.4622C26.8794 21.8184 27.788 21.1682 28.6784 20.5147C28.782 20.4388 28.8814 20.364 28.985 20.2879C29.8491 19.6502 30.694 19.0136 31.5218 18.3821C31.6334 18.2962 31.745 18.2128 31.8554 18.127C32.7696 17.4255 33.6569 16.7364 34.5178 16.0594L65.6379 29.0661C57.4336 35.3133 46.8923 42.3734 38.807 42.3734C38.2294 42.3734 37.6664 42.3354 37.1318 42.2594L17.7621 34.1654L14.4256 32.7722L10.4179 31.0971ZM15.1945 36.7088L36.2106 45.4945C37.0549 45.643 37.9189 45.714 38.8068 45.714C47.2644 45.714 57.4917 39.2929 65.8192 33.1121L41.9236 56.7684L8.88132 42.9609L15.1945 36.7088ZM74.5448 34.0796L42.1229 66.1772L8.02701 51.9281V49.1516L42.3394 63.4901L74.5448 31.6061V34.0796ZM74.5448 29.6304L42.0169 61.8346L8.02717 47.6309V44.6729L42.3622 59.0213L74.5448 27.1604V29.6304Z" fill="#787878"/>
<path d="M31.8564 35.588C31.9784 35.648 32.1421 35.6296 32.2655 35.5402L35.3687 34.1471C35.7225 33.9889 36.0592 33.7926 36.373 33.567L46.363 26.3365C46.4856 26.2469 46.4863 26.1475 46.3643 26.0864L44.085 24.9557C43.9422 24.8845 43.779 24.8525 43.5957 24.8626L39.5964 24.9262C39.4137 24.9348 39.2911 24.9739 39.1678 25.0635L36.6274 26.9019C36.4637 27.0209 36.5244 27.0994 36.7279 27.1018L40.4419 27.0957L40.4818 27.1153L33.4744 32.1876L29.4158 34.1265C29.2926 34.2148 29.2926 34.3153 29.4146 34.3754L31.8564 35.588Z" fill="#787878"/>
</g>
<defs>
<clipPath id="clip0_102_170">
<rect width="77.8854" height="77.8854" fill="white"/>
</clipPath>
</defs>
</svg>
