<svg width="78" height="79" viewBox="0 0 78 79" fill="none" xmlns="http://www.w3.org/2000/svg">
<g clip-path="url(#clip0_102_181)">
<path d="M0 7.4906V71.6311H77.8854V7.4906H0ZM71.7765 65.5219H6.10899V13.5984H71.7765V65.5219Z" fill="#787878"/>
<path d="M49.6106 32.2177C48.9796 31.261 47.9094 30.6848 46.7629 30.686C45.6153 30.6871 44.5465 31.2645 43.9167 32.2224L32.9297 48.9425L26.8659 42.0701C26.1632 41.2733 25.1278 40.8498 24.0673 40.9261C23.0069 41 22.0429 41.5667 21.4597 42.4554L11.2827 57.9613H66.6025L49.6106 32.2177Z" fill="#787878"/>
<path d="M26.6168 35.7141C30.4353 35.7141 33.5311 32.6185 33.5311 28.7986C33.5311 24.9801 30.4355 21.8845 26.6168 21.8845C22.7971 21.8845 19.7014 24.9801 19.7014 28.7986C19.7013 32.6185 22.7971 35.7141 26.6168 35.7141Z" fill="#787878"/>
</g>
<defs>
<clipPath id="clip0_102_181">
<rect width="77.8854" height="77.8854" fill="white" transform="translate(0 0.618164)"/>
</clipPath>
</defs>
</svg>
