<svg width="94" height="94" viewBox="0 0 94 94" fill="none" xmlns="http://www.w3.org/2000/svg">
<path d="M80.7471 28.3257C76.1841 23.76 70.2301 21.0816 63.8355 20.6888C64.1487 19.1518 63.647 17.5313 62.4657 16.4496C61.6322 15.6878 60.5519 15.2671 59.4211 15.2671C58.6936 15.2671 57.9636 15.4463 57.3187 15.7874L43.5023 23.091C42.0184 23.8702 41.0947 25.4031 41.1 27.0875C41.1 28.7649 42.0291 30.2981 43.5235 31.0744L57.316 38.3661C57.9585 38.7059 58.6885 38.8892 59.4211 38.8892C60.5466 38.8892 61.6243 38.4711 62.4577 37.7131C63.6098 36.6593 64.1167 35.1066 63.8646 33.6186C66.8004 33.9851 69.5159 35.3082 71.6448 37.4345C74.1691 39.959 75.5602 43.3194 75.5602 46.891C75.5602 50.4598 74.1691 53.8204 71.6422 56.3501C69.1151 58.8733 65.7545 60.2668 62.1816 60.2668L58.7069 60.2681V63.744V69.6662V73.1435H62.1842C69.2024 73.1435 75.7935 70.4121 80.7494 65.4521C85.7052 60.5001 88.4393 53.9078 88.4367 46.8908C88.4396 39.8725 85.7056 33.2801 80.7471 28.3257ZM78.2891 62.9956C74.1773 67.1099 68.4676 69.6662 62.1898 69.6662H62.1845V63.744C66.8484 63.7414 71.0424 61.862 74.1029 58.8067C77.1555 55.7475 79.0377 51.5534 79.0377 46.8908C79.0377 42.227 77.1557 38.0316 74.1029 34.9736C71.0424 31.9184 66.8482 30.0388 62.1845 30.0362H58.7124L60.374 33.9795C60.5413 34.3816 60.4405 34.846 60.1193 35.1407C59.9228 35.3186 59.6734 35.4115 59.4212 35.4115C59.2566 35.4115 59.0921 35.3717 58.9408 35.2908L45.127 27.9884C44.7872 27.8105 44.5775 27.4588 44.5775 27.0767C44.5747 26.6957 44.7872 26.3426 45.127 26.166L58.9381 18.8624C59.0921 18.7828 59.2566 18.7442 59.4212 18.7442C59.676 18.7442 59.9228 18.8359 60.1193 19.0149C60.4405 19.3083 60.5414 19.7727 60.3714 20.1763L58.715 24.1143H62.1845H62.1898C68.4676 24.1143 74.1773 26.6705 78.2891 30.7861C82.4062 34.8979 84.9623 40.6104 84.9597 46.8908C84.9623 53.1713 82.4062 58.8838 78.2891 62.9956Z" fill="#787878"/>
<path d="M50.6959 62.7063L36.9034 55.4158C36.261 55.0747 35.5309 54.8929 34.7984 54.8929C33.6729 54.8929 32.5952 55.3097 31.7617 56.0675C30.6097 57.1226 30.1026 58.6768 30.3549 60.1621C27.4191 59.7958 24.7034 58.4726 22.5746 56.3463C20.0502 53.8205 18.6593 50.4601 18.6566 46.8898C18.6593 43.3195 20.0502 39.9591 22.5773 37.4307C25.1044 34.9076 28.4649 33.5154 32.0352 33.5141L35.5125 33.5126V30.0365V24.1144V20.6382H32.0352H32.0298C25.0168 20.6382 18.4231 23.3684 13.4698 28.3283C8.51121 33.2816 5.77973 39.874 5.78247 46.8911C5.77973 53.9069 8.5112 60.4991 13.4724 65.4564C18.0354 70.0221 23.9894 72.699 30.3838 73.0919C30.0681 74.6288 30.5724 76.2493 31.751 77.3311C32.5871 78.0942 33.6676 78.5136 34.7983 78.5136C35.5283 78.5136 36.2556 78.3344 36.9006 77.9947L50.717 70.6896C52.201 69.9105 53.1247 68.3788 53.1194 66.6935C53.1195 65.0157 52.1905 63.4827 50.6959 62.7063ZM49.0927 67.6157L35.2787 74.9181C35.1274 74.9977 34.9629 75.0363 34.7983 75.0363C34.5461 75.0363 34.294 74.9447 34.1001 74.7655C33.779 74.4722 33.6781 74.0078 33.8479 73.6056L35.5042 69.6665H32.035H32.0297C25.7518 69.6665 20.0394 67.1101 15.9304 62.9958C11.8134 58.8841 9.25703 53.1715 9.25978 46.8912C9.25703 40.6108 11.8134 34.8982 15.9304 30.7865C20.0422 26.6709 25.7518 24.1147 32.0297 24.1147H32.035V30.0365C27.3712 30.039 23.1771 31.9185 20.1164 34.9738C17.0613 38.0317 15.1819 42.2271 15.1819 46.8911C15.1819 51.5536 17.0613 55.7477 20.1164 58.8069C23.1771 61.8622 27.3712 63.7416 32.035 63.7442H35.5071L33.8453 59.801C33.6781 59.3989 33.779 58.9344 34.1001 58.6396C34.2965 58.4617 34.546 58.3689 34.7983 58.3689C34.9629 58.3689 35.1274 58.4088 35.2787 58.4897L49.0927 65.7936C49.4323 65.9701 49.6422 66.3218 49.6422 66.7041C49.6448 67.0861 49.4325 67.4378 49.0927 67.6157Z" fill="#787878"/>
</svg>
