<svg width="80" height="79" viewBox="0 0 80 79" fill="none" xmlns="http://www.w3.org/2000/svg">
<g clip-path="url(#clip0_102_178)">
<path d="M77.3754 32.564L68.7926 32.1715C68.0086 32.1365 67.3161 31.6551 67.0183 30.9389L65.2498 26.7259C64.9522 26.0067 65.0966 25.1827 65.6271 24.6093L71.4156 18.3219C72.1407 17.5327 72.1142 16.3131 71.3509 15.556L64.2153 8.49114C63.4491 7.73556 62.2171 7.70635 61.4185 8.42846L55.07 14.1585C54.4894 14.6823 53.6553 14.8281 52.9302 14.5291L48.6744 12.7815C47.9494 12.4855 47.466 11.7997 47.4306 11.0223L47.0328 2.52925C46.9824 1.46 46.0923 0.618164 45.0137 0.618164H34.9162C33.8374 0.618164 32.9444 1.46 32.8945 2.5291L32.4994 11.0221C32.464 11.7996 31.9806 12.4852 31.2555 12.7814L26.9996 14.5291C26.2716 14.8281 25.4375 14.6823 24.8599 14.1585L18.5084 8.42846C17.7096 7.7065 16.4777 7.73419 15.7114 8.49114L8.57875 15.556C7.81254 16.3131 7.7861 17.5327 8.5139 18.3219L14.3024 24.6093C14.8329 25.1827 14.9744 26.0067 14.6737 26.7259L12.9112 30.9389C12.6106 31.6551 11.921 32.1365 11.1342 32.1715L2.55433 32.564C1.47571 32.612 0.623901 33.4946 0.623901 34.5639V44.558C0.623901 45.6258 1.47571 46.5097 2.55433 46.5581L11.1342 46.9504C11.921 46.9853 12.6106 47.4667 12.9112 48.183L14.6737 52.3959C14.9744 53.1151 14.8329 53.9393 14.3024 54.5125L8.5139 60.797C7.78303 61.5906 7.81254 62.8086 8.57583 63.5657L15.7171 70.6306C16.4804 71.3877 17.7095 71.4141 18.5112 70.6948L24.8597 64.9634C25.4374 64.4397 26.2746 64.2953 26.9994 64.593L31.2552 66.339C31.9804 66.6366 32.4637 67.3223 32.4991 68.0998L32.8942 76.5928C32.9441 77.6607 33.8371 78.5038 34.9159 78.5038H45.0134C46.0921 78.5038 46.9822 77.6607 47.0323 76.5928L47.4302 68.0998C47.4655 67.3223 47.949 66.6366 48.674 66.339L52.9298 64.593C53.6548 64.2953 54.4889 64.4397 55.0695 64.9634L61.418 70.6948C62.2168 71.4141 63.4488 71.3877 64.2149 70.6306L71.3505 63.5657C72.1138 62.8086 72.1402 61.5906 71.4152 60.797L65.6266 54.5125C65.0962 53.9393 64.9486 53.1151 65.2494 52.3959L67.0178 48.183C67.3155 47.4667 68.0081 46.9853 68.7921 46.9504L77.3749 46.5581C78.4535 46.5097 79.3022 45.6258 79.3022 44.558V34.5639C79.3027 33.4946 78.454 32.612 77.3754 32.564ZM39.9649 52.2809C32.8708 52.2809 27.1145 46.5858 27.1145 39.5618C27.1145 32.5363 32.8708 26.8412 39.9649 26.8412C47.059 26.8412 52.8122 32.5363 52.8122 39.5618C52.8122 46.5856 47.059 52.2809 39.9649 52.2809Z" fill="#787878"/>
</g>
<defs>
<clipPath id="clip0_102_178">
<rect width="78.6802" height="77.8854" fill="white" transform="translate(0.622925 0.618164)"/>
</clipPath>
</defs>
</svg>
