<?xml version="1.0" encoding="UTF-8"?>
<svg version="1.1" xmlns="http://www.w3.org/2000/svg" width="300" height="300">
<path d="M0 0 C0.74372864 0.00087616 1.48745728 0.00175232 2.25372314 0.00265503 C32.73341268 0.12055933 61.46844059 8.84203273 86.5625 26.375 C87.54089844 27.055625 88.51929688 27.73625 89.52734375 28.4375 C122.0492225 52.23595762 142.79864745 86.79008983 149.64453125 126.328125 C150.80864998 134.15543224 150.96033719 141.91921777 150.9375 149.8125 C150.93662384 150.55622864 150.93574768 151.29995728 150.93484497 152.06622314 C150.81694067 182.54591268 142.09546727 211.28094059 124.5625 236.375 C123.881875 237.35339844 123.20125 238.33179688 122.5 239.33984375 C98.70154238 271.8617225 64.14741017 292.61114745 24.609375 299.45703125 C16.78206776 300.62114998 9.01828223 300.77283719 1.125 300.75 C0.00940704 300.74868576 0.00940704 300.74868576 -1.12872314 300.74734497 C-31.60841268 300.62944067 -60.34344059 291.90796727 -85.4375 274.375 C-86.41589844 273.694375 -87.39429688 273.01375 -88.40234375 272.3125 C-120.9242225 248.51404238 -141.67364745 213.95991017 -148.51953125 174.421875 C-149.68364998 166.59456776 -149.83533719 158.83078223 -149.8125 150.9375 C-149.81162384 150.19377136 -149.81074768 149.45004272 -149.80984497 148.68377686 C-149.69194067 118.20408732 -140.97046727 89.46905941 -123.4375 64.375 C-122.756875 63.39660156 -122.07625 62.41820312 -121.375 61.41015625 C-97.57654238 28.8882775 -63.02241017 8.13885255 -23.484375 1.29296875 C-15.65706776 0.12885002 -7.89328223 -0.02283719 0 0 Z " fill="#FEFDFD" transform="translate(149.4375,-0.37499999999999994)"/>
<path d="M0 0 C0.74372864 0.00087616 1.48745728 0.00175232 2.25372314 0.00265503 C32.73341268 0.12055933 61.46844059 8.84203273 86.5625 26.375 C87.54089844 27.055625 88.51929688 27.73625 89.52734375 28.4375 C122.0492225 52.23595762 142.79864745 86.79008983 149.64453125 126.328125 C150.80864998 134.15543224 150.96033719 141.91921777 150.9375 149.8125 C150.93662384 150.55622864 150.93574768 151.29995728 150.93484497 152.06622314 C150.81694067 182.54591268 142.09546727 211.28094059 124.5625 236.375 C123.881875 237.35339844 123.20125 238.33179688 122.5 239.33984375 C98.70154238 271.8617225 64.14741017 292.61114745 24.609375 299.45703125 C16.78206776 300.62114998 9.01828223 300.77283719 1.125 300.75 C0.00940704 300.74868576 0.00940704 300.74868576 -1.12872314 300.74734497 C-31.60841268 300.62944067 -60.34344059 291.90796727 -85.4375 274.375 C-86.41589844 273.694375 -87.39429688 273.01375 -88.40234375 272.3125 C-120.9242225 248.51404238 -141.67364745 213.95991017 -148.51953125 174.421875 C-149.68364998 166.59456776 -149.83533719 158.83078223 -149.8125 150.9375 C-149.81162384 150.19377136 -149.81074768 149.45004272 -149.80984497 148.68377686 C-149.69194067 118.20408732 -140.97046727 89.46905941 -123.4375 64.375 C-122.756875 63.39660156 -122.07625 62.41820312 -121.375 61.41015625 C-97.57654238 28.8882775 -63.02241017 8.13885255 -23.484375 1.29296875 C-15.65706776 0.12885002 -7.89328223 -0.02283719 0 0 Z M-10.4375 24.375 C-11.283125 24.890625 -12.12875 25.40625 -13 25.9375 C-17.99731055 30.93481055 -20.74050277 36.77812997 -20.8125 43.875 C-20.70545681 46.47697283 -20.60349231 48.04301538 -19.4375 50.375 C-29.0075 50.375 -38.5775 50.375 -48.4375 50.375 C-48.4375 52.025 -48.4375 53.675 -48.4375 55.375 C-59.9875 55.375 -71.5375 55.375 -83.4375 55.375 C-83.4375 124.015 -83.4375 192.655 -83.4375 263.375 C-27.6675 263.375 28.1025 263.375 85.5625 263.375 C85.5625 194.735 85.5625 126.095 85.5625 55.375 C73.6825 55.375 61.8025 55.375 49.5625 55.375 C49.5625 53.725 49.5625 52.075 49.5625 50.375 C40.3225 50.375 31.0825 50.375 21.5625 50.375 C21.8925 49.055 22.2225 47.735 22.5625 46.375 C23.28964446 38.95812651 20.88881706 33.28289632 16.3125 27.5625 C10.4294858 22.88282961 5.5053658 20.71243398 -2.11328125 21.05078125 C-5.38552907 21.50724607 -7.67800643 22.57812046 -10.4375 24.375 Z " fill="#E4C8CE" transform="translate(149.4375,-0.37499999999999994)"/>
<path d="M0 0 C3.3 0 6.6 0 10 0 C10 4.29 10 8.58 10 13 C42.34 13 74.68 13 108 13 C108 8.71 108 4.42 108 0 C111.3 0 114.6 0 118 0 C118.11680959 20.36656789 118.20497655 40.73306778 118.25906086 61.0999012 C118.28484082 70.55662357 118.31998735 80.01313779 118.37719727 89.46972656 C118.42703863 97.71225081 118.45929253 105.95462431 118.47044247 114.19729507 C118.47696002 118.56167314 118.4922735 122.92561995 118.52865028 127.28985977 C118.56262154 131.3988427 118.57305083 135.50721726 118.56553841 139.61632729 C118.56691247 141.12319433 118.57683881 142.63008198 118.59602737 144.13682747 C118.75107875 156.94145094 118.75107875 156.94145094 115.65202332 160.88082886 C112.31095635 163.55059902 109.95681152 164.12326018 105.80729675 164.14717102 C104.52675163 164.15790398 104.52675163 164.15790398 103.22033691 164.16885376 C102.28677368 164.17154266 101.35321045 164.17423157 100.39135742 164.17700195 C99.4056929 164.18357315 98.42002838 164.19014435 97.40449524 164.19691467 C94.13815232 164.21664782 90.87185536 164.2283097 87.60546875 164.23828125 C85.9328469 164.24439454 85.9328469 164.24439454 84.22643471 164.25063133 C78.32568166 164.27149108 72.42495187 164.28579383 66.52416992 164.29516602 C60.42754802 164.30623656 54.33129048 164.34064452 48.23479748 164.38033772 C43.54819557 164.4064714 38.86168096 164.41485493 34.17501259 164.41844749 C31.92753956 164.423321 29.68007062 164.43495662 27.43266869 164.45348549 C24.28709312 164.47780953 21.14246682 164.47692404 17.99682617 164.4699707 C16.60559036 164.48918579 16.60559036 164.48918579 15.18624878 164.50878906 C9.654912 164.46423961 6.30604011 163.82453982 2 160 C-0.25332928 156.56722452 -0.24701943 153.64608443 -0.24050903 149.59661865 C-0.24325836 148.27851196 -0.24600769 146.96040527 -0.24884033 145.60235596 C-0.24176242 144.14343171 -0.23449281 142.68450838 -0.22705078 141.22558594 C-0.22648659 139.68806974 -0.22680339 138.150553 -0.22793579 136.61303711 C-0.22850998 132.43980619 -0.21674491 128.26669006 -0.20278788 124.09348583 C-0.19029161 119.7319465 -0.18911089 115.37040457 -0.18673706 111.0088501 C-0.18051905 102.74995433 -0.16410388 94.49111147 -0.14403808 86.23223901 C-0.12168909 76.82967235 -0.11068816 67.42710318 -0.10064721 58.02451658 C-0.07973793 38.68298105 -0.0445557 19.34149478 0 0 Z " fill="#E4C8CE" transform="translate(91,75)"/>
<path d="M0 0 C8.91 0 17.82 0 27 0 C27 1.32 27 2.64 27 4 C21.06 4 15.12 4 9 4 C9.01486301 25.50566541 9.05607498 47.01109829 9.13209057 68.51663971 C9.1667256 78.50232886 9.19209415 88.48788018 9.19555664 98.47363281 C9.1985986 107.17847584 9.21912026 115.88307329 9.26052457 124.58782148 C9.28183522 129.19585953 9.29446514 133.80354862 9.28615379 138.41163635 C9.27860138 142.75220244 9.29448442 147.09206219 9.32806015 151.43249893 C9.33627913 153.02232405 9.33606019 154.61221961 9.32659721 156.20203781 C9.03476282 166.95583642 9.03476282 166.95583642 13.4200716 176.45689583 C19.65009258 182.54171042 25.04009301 183.73733115 33.60351562 183.64697266 C34.63546555 183.65573425 35.66741547 183.66449585 36.7306366 183.67352295 C40.12294248 183.69542964 43.51393214 183.68099419 46.90625 183.6640625 C49.27462004 183.66743311 51.6429884 183.67228778 54.01135254 183.67855835 C58.96753458 183.68591791 63.9232651 183.67525305 68.87939453 183.65185547 C75.22137647 183.6233691 81.56230032 183.63977787 87.90424347 183.66971779 C92.79258141 183.68781506 97.68066991 183.6820214 102.5690155 183.66907883 C104.90691759 183.66575157 107.24484257 183.66980782 109.5827179 183.68147659 C112.8545806 183.69422458 116.12474747 183.67475079 119.39648438 183.64697266 C120.35568283 183.65709381 121.31488129 183.66721497 122.30314636 183.67764282 C128.67505337 183.57779482 133.25719442 182.4215561 138 178 C143.79380273 171.43224685 142.57488939 162.05774865 142.54589844 153.85351562 C142.5546418 152.21687847 142.56513024 150.58024985 142.57722473 148.94363403 C142.60501207 144.51856062 142.60849103 140.09376713 142.60750484 135.66861916 C142.61064021 131.037439 142.63627139 126.40638375 142.65948486 121.77526855 C142.70000069 113.0136263 142.72037519 104.25205838 142.73345876 95.49033689 C142.74934377 85.51204005 142.78776573 75.53386946 142.82805204 65.55564594 C142.91039054 45.03713601 142.96372107 24.51863861 143 4 C137.06 4 131.12 4 125 4 C125 2.68 125 1.36 125 0 C134.24 0 143.48 0 153 0 C153 63.36 153 126.72 153 192 C102.51 192 52.02 192 0 192 C0 128.64 0 65.28 0 0 Z " fill="#E4C9CF" transform="translate(74,63)"/>
<path d="M0 0 C4.35030285 2.17515143 7.18754542 4.71396119 9.36328125 9.01953125 C10.67553404 13.10120098 10.0236435 15.79168784 9 20 C7.02 22.97 5.04 25.94 3 29 C14.22 29 25.44 29 37 29 C37 36.26 37 43.52 37 51 C9.94 51 -17.12 51 -45 51 C-45 43.74 -45 36.48 -45 29 C-33.45 29 -21.9 29 -10 29 C-12.31 25.37 -14.62 21.74 -17 18 C-17.77671241 13.12789486 -17.54173993 11.02543629 -15.25 6.6875 C-10.86933503 1.45503906 -6.93900966 -0.68029506 0 0 Z " fill="#E4C8CE" transform="translate(154,29)"/>
<path d="M0 0 C22.77 0 45.54 0 69 0 C69 2.64 69 5.28 69 8 C46.23 8 23.46 8 0 8 C0 5.36 0 2.72 0 0 Z " fill="#FEFDFD" transform="translate(117,214)"/>
<path d="M0 0 C22.77 0 45.54 0 69 0 C69 2.64 69 5.28 69 8 C46.23 8 23.46 8 0 8 C0 5.36 0 2.72 0 0 Z " fill="#FEFDFD" transform="translate(117,165)"/>
<path d="M0 0 C22.77 0 45.54 0 69 0 C69 2.64 69 5.28 69 8 C46.23 8 23.46 8 0 8 C0 5.36 0 2.72 0 0 Z " fill="#FFFFFF" transform="translate(117,140)"/>
<path d="M0 0 C22.77 0 45.54 0 69 0 C69 2.64 69 5.28 69 8 C46.23 8 23.46 8 0 8 C0 5.36 0 2.72 0 0 Z " fill="#FEFDFD" transform="translate(117,115)"/>
<path d="M0 0 C22.77 0 45.54 0 69 0 C69 2.31 69 4.62 69 7 C46.23 7 23.46 7 0 7 C0 4.69 0 2.38 0 0 Z " fill="#FFFFFF" transform="translate(117,190)"/>
</svg>
